<?xml version="1.0" encoding="UTF-8"?>
<!DOCTYPE svg PUBLIC "-//W3C//DTD SVG 1.1//EN" "http://www.w3.org/Graphics/SVG/1.1/DTD/svg11.dtd">
<!-- Creator: CorelDRAW 2020 (64-Bit) -->
<svg xmlns="http://www.w3.org/2000/svg" xml:space="preserve" width="210mm" height="297mm" version="1.1" style="shape-rendering:geometricPrecision; text-rendering:geometricPrecision; image-rendering:optimizeQuality; fill-rule:evenodd; clip-rule:evenodd"
viewBox="0 0 210 297"
 xmlns:xlink="http://www.w3.org/1999/xlink"
 xmlns:xodm="http://www.corel.com/coreldraw/odm/2003">
 <defs>
  <style type="text/css">
   <![CDATA[
    .fil1 {fill:#5E5E5E}
    .fil0 {fill:#5E5E5E;fill-rule:nonzero}
   ]]>
  </style>
 </defs>
 <g id="Layer_x0020_1">
  <metadata id="CorelCorpID_0Corel-Layer"/>
  <path class="fil0" d="M-9.1636 129.6765l0 12.0759 3.8599 0 0 -8.0506 14.1161 0 0 8.0506 3.8599 0 0 -12.0759 -21.8359 0zm3.4188 -3.915l14.888 0c2.0954,-0.386 3.5841,-2.2608 4.0253,-4.0253l-22.9385 0c0.441,1.7645 1.9849,3.5842 4.0252,4.0253z"/>
  <path class="fil0" d="M63.4179 141.7524l14.888 0c2.0954,-0.386 3.6393,-2.2608 4.0253,-4.0253l-22.9938 0c0.4411,1.7645 1.985,3.6393 4.0805,4.0253zm0 -8.1058l14.888 0c2.0954,-0.3859 3.6393,-2.2607 4.0253,-4.0252l-22.9938 0c0.4411,1.7645 1.985,3.5841 4.0805,4.0252zm0 -7.8852l14.888 0c2.0954,-0.3858 3.6393,-2.2607 4.0253,-4.0252l-22.9938 0c0.4411,1.7645 1.985,3.5842 4.0805,4.0252z"/>
  <path class="fil0" d="M40.2098 123.7366l-6.1219 12.8343 -6.1441 -12.8266c-1.2532,-1.7229 -3.5874,-2.2556 -5.3694,-1.8912l9.9099 20.6875 3.2157 0 9.8758 -20.704c-1.7824,-0.3614 -4.0895,0.2485 -5.366,1.9z"/>
  <path class="fil0" d="M93.8572 121.7915c0.4424,1.7694 1.9905,3.5388 4.0364,3.9811l6.3034 0 0.3318 0.1107 0 15.8691 3.9258 0 0 -15.8691 0.3318 -0.1107 6.3035 0c2.101,-0.5529 3.594,-2.2117 4.0363,-3.9811l0 -0.0553 -25.269 0.0553z"/>
  <path class="fil0" d="M151.9044 125.662l13.8234 0c2.1012,-0.6082 3.8152,-2.2118 4.2576,-3.9258l-21.8962 0 0 11.8327 17.915 0 0 4.1471 -14.0444 0c-2.2118,0.6081 -4.0918,2.1012 -5.0317,4.0364l22.9467 0 0 -12.1093 -17.915 0 -0.0554 -3.9811z"/>
  <path class="fil0" d="M130.901 125.2882l0 12.9602c0.2038,1.8241 1.1941,3.168 2.1261,3.504l0 -20.0162c-0.932,0.3839 -1.8931,1.728 -2.1261,3.552zm4.2522 12.9122l0 -12.9602c-0.2039,-1.8241 -1.1942,-3.168 -2.1261,-3.504l0 20.0162c0.9319,-0.3839 1.8931,-1.728 2.1261,-3.552z"/>
  <path class="fil0" d="M8.944 109.6598l0 -13.4176c0.4077,-1.9269 2.3883,-3.3466 4.2522,-3.7016l0 17.1192 0 4.0254 0 0.0001 -22.9086 0 -0.0521 -0.0075 -0.0328 0.0074 0 -0.0122 0 -4.0132 0 -17.1192c1.8639,0.355 3.8444,1.7747 4.2521,3.7016l0 13.4176 14.4892 0z"/>
  <path class="fil0" d="M-26.3167 111.7298l-3.7207 -7.2234 4.2841 0c0.1074,-0.0132 0.215,-0.0284 0.3225,-0.0454l4.0594 7.8811c-1.8244,0.3984 -3.9833,0.2704 -4.9453,-0.6123zm4.8156 -9.3468l0 -7.7477c-0.4077,-1.0904 -2.3882,-1.8939 -4.2522,-2.0947l0 11.9658c1.864,-0.2295 3.7862,-1.033 4.2522,-2.1234zm-4.2522 2.1234l0 -4.0254 -18.9893 0 0 12.0762 4.0775 0 0 -8.0508 14.9118 0zm-15.3779 -7.9405l15.3779 0 0 -4.0253 -19.63 0c0.466,1.7645 2.0968,3.5843 4.2521,4.0253z"/>
  <path class="fil0" d="M112.6467 106.1576l-12.3097 -13.2187 0 2.4949 0 4.5619 12.3097 13.3008 0 -7.1389zm-12.3097 3.5348l0 -16.7535 -4.2522 0.0057 0 20.3611c1.8639,-0.3907 3.7861,-1.7579 4.2522,-3.6133zm12.3097 3.6041l0 -16.812c0.4076,-1.8554 2.3881,-3.2225 4.2522,-3.5644l0 20.3611 -4.2522 0.0153z"/>
  <path class="fil0" d="M63.418 97.3147l14.888 0c2.0954,-0.3859 3.6393,-2.2608 4.0253,-4.0253l-22.9938 0c0.4411,1.7645 1.9851,3.5842 4.0805,4.0253zm0 7.8852l14.888 0c2.0954,-0.386 3.6393,-2.2608 4.0253,-4.0253l-22.9938 0c0.4411,1.7645 1.9851,3.5842 4.0805,4.0253zm0 8.1058l14.888 0c2.0954,-0.3861 3.6393,-2.2609 4.0253,-4.0254l-22.9938 0c0.4411,1.7645 1.9851,3.6393 4.0805,4.0254z"/>
  <path class="fil0" d="M28.8505 113.3055l0.1716 0 14.7164 0c2.0955,-0.3859 3.6393,-2.2608 4.0253,-4.0253l-12.5428 0 -6.1989 0 -4.252 0 0 4.0253 4.0804 0zm0.1716 -8.1057l6.1989 0 12.5428 0c-0.2983,-1.1699 -1.4451,-2.4091 -3.0189,-2.7646 0.1914,-0.4121 0.3317,-1.7175 0.4134,-2.1387l-9.9374 0 -6.1988 0 -4.252 0 0 0.878 0 4.0253 4.252 0zm0 -7.8851l6.1988 0 9.9374 0c-0.3423,-1.7645 -1.7111,-3.6394 -3.5691,-4.0253l-12.5671 0 -0.634 0 -3.618 0 0 4.0253 4.252 0z"/>
  <path class="fil0" d="M219.4105 129.416l0 12.0759 3.8599 0 0 -8.0507 14.1161 0 0 8.0507 3.8599 0 0 -12.0759 -21.8359 0zm3.4187 -3.9151l14.8881 0c2.0954,-0.3859 3.584,-2.2608 4.0253,-4.0253l-22.9385 0c0.441,1.7645 1.9849,3.5842 4.0251,4.0253z"/>
  <path class="fil0" d="M202.021 122.262l-7.6741 8.9087 1.445 1.6879 -9.0234 -10.5399c-1.4636,-1.1794 -3.5742,-1.0965 -5.0082,-0.3765l10.6716 12.4063 0 7.5548 3.9258 0 0 -8.3838 10.6716 -11.6323c-1.4338,-0.7207 -3.5391,-0.7356 -5.0083,0.3748zm-9.9209 10.5421l3.6918 0.0545 0.5658 0.0084 -4.2576 -0.0629z"/>
  <path class="fil0" d="M270.0795 134.7131l-12.3097 -13.2187 0 2.4949 0 4.5619 12.3097 13.3008 0 -7.1389zm-12.3097 3.5348l0 -16.7535 -4.2522 0.0057 0 20.361c1.864,-0.3906 3.7862,-1.7578 4.2522,-3.6132zm12.3097 3.6041l0 -16.812c0.4077,-1.8554 2.3882,-3.2225 4.2522,-3.5644l0 20.3611 -4.2522 0.0153z"/>
  <rect class="fil1" x="-35.2508" y="116.0467" width="265.54" height="2.065"/>
 </g>
</svg>
