<?xml version="1.0" encoding="UTF-8"?>
<svg clip-rule="evenodd" fill-rule="evenodd" image-rendering="optimizeQuality" shape-rendering="geometricPrecision" text-rendering="geometricPrecision" viewBox="0 0 21 29.7" xml:space="preserve" xmlns="http://www.w3.org/2000/svg"><path d="M6.5289 15.7085v-1.7583c.0534-.2525.313-.4386.5572-.4851V16.236h-3.002l-.0069-.001-.0043.001V13.465c.2443.0465.5038.2326.5573.485v1.7584h1.8987zm-4.9356-.5867.368.7144c.173.2238.488.292.7197.2303l-.4915-.9543c.2563-.0675.443-.3027.4915-.5247v-.588c-.0499-.2343-.2495-.4832-.5205-.5344H-.0071c.0586.2342.2634.4758.5417.5344h1.612v.588H-.007v1.479h.5343v-.9447h1.0661zm10.3101.0024h-.4519v.5346h.452v-.5346zm-.3413-1.0333h-.452v.6543h.452v-.6543zm-2.1372 1.0333h.9755v-.5275H8.8902c.0578.2313.2601.477.5347.5275zm.6968 1.062h1.2542c.2746-.0505.4769-.2962.5275-.5274H10.1217v.5275zm.9662-2.6228h-.9663v.5275H8.89h2.672c-.0512-.2313-.2306-.4697-.4741-.5275zm-1.7237.5275h.9663v-.5275H8.89c.0513.2312.2307.4697.4742.5275zm.0001 2.0954h.9663v-.5275H8.8901c.0513.2312.2307.4697.4742.5275zm2.0044-1.5896h-.9755v.5274h1.5102c-.0578-.2312-.2601-.4769-.5347-.5274zm2.729-.506h1.951c.2745-.0506.4768-.2963.5274-.5275H13.563c.0578.2312.2601.4697.5347.5275zm0 1.0333h1.951c.2745-.0506.4768-.2962.5274-.5275H13.563c.0578.2313.2601.4697.5347.5275zm0 1.0622h1.951c.2745-.0505.4768-.2962.5274-.5275H13.563c.0578.2313.2601.477.5347.5275zm6.338-.9367-1.6132-1.7322V14.442l1.6131 1.743v-.9355zm-1.6132.4632v-2.1954l-.5572.0007v2.6682c.2443-.0512.4961-.2303.5572-.4735zm1.6131.4723v-2.203c.0535-.2432.313-.4224.5573-.4672v2.6682l-.5573.002z" fill="#5E5E5E" fill-rule="nonzero"/></svg>
